<mxfile host="app.diagrams.net" modified="2021-04-08T13:01:32.856Z" agent="5.0 (Windows NT 10.0; Win64; x64) AppleWebKit/537.36 (KHTML, like Gecko) Chrome/86.0.4240.198 Whale/2.9.115.16 Safari/537.36" etag="WRZy3HXN7OAtAGd2Pm4P" version="14.5.8" type="github">
  <diagram name="Page-1" id="c7558073-3199-34d8-9f00-42111426c3f3">
    <mxGraphModel dx="1038" dy="544" grid="1" gridSize="10" guides="1" tooltips="1" connect="1" arrows="1" fold="1" page="1" pageScale="1" pageWidth="826" pageHeight="1169" background="#ffffff" math="0" shadow="0">
      <root>
        <mxCell id="0" />
        <mxCell id="1" parent="0" />
        <mxCell id="3" value="가상 계좌&#xa;(카드사)" style="whiteSpace=wrap;align=center;verticalAlign=middle;fontStyle=1;strokeWidth=3;fillColor=#FFFFCC" parent="1" vertex="1">
          <mxGeometry x="368" y="287" width="90" height="60" as="geometry" />
        </mxCell>
        <mxCell id="5" value="구매자" style="shape=process;whiteSpace=wrap;align=center;verticalAlign=middle;size=0.0475;fontStyle=1;strokeWidth=3;fillColor=#FFCCCC;fontSize=16;" parent="1" vertex="1">
          <mxGeometry x="210" y="460" width="285" height="50" as="geometry" />
        </mxCell>
        <mxCell id="10" value="&lt;p style=&quot;margin: 0px ; margin-top: 4px ; text-align: center ; text-decoration: underline&quot;&gt;&lt;strong&gt;&lt;br&gt;&lt;/strong&gt;&lt;/p&gt;&lt;hr&gt;&lt;p style=&quot;margin: 0px ; margin-left: 8px&quot;&gt;전자 결제&amp;nbsp;&lt;/p&gt;&lt;p style=&quot;margin: 0px ; margin-left: 8px&quot;&gt;서비스 회사&lt;/p&gt;" style="verticalAlign=middle;align=center;overflow=fill;fontSize=12;fontFamily=Helvetica;html=1;rounded=1;fontStyle=1;strokeWidth=3;fillColor=#E6FFCC" parent="1" vertex="1">
          <mxGeometry x="336" y="585" width="101.5" height="90" as="geometry" />
        </mxCell>
        <mxCell id="36" value="" style="edgeStyle=none;noEdgeStyle=1;strokeColor=#990000;strokeWidth=2;exitX=0;exitY=0.5;exitDx=0;exitDy=0;entryX=0.5;entryY=0;entryDx=0;entryDy=0;" parent="1" source="3" target="oaGqmiSgCqS2MbXFFsNn-123" edge="1">
          <mxGeometry width="100" height="100" relative="1" as="geometry">
            <mxPoint x="164" y="404" as="sourcePoint" />
            <mxPoint x="370" y="350" as="targetPoint" />
            <Array as="points" />
          </mxGeometry>
        </mxCell>
        <mxCell id="54" value="주문, 결제" style="text;spacingTop=-5;align=center" parent="1" vertex="1">
          <mxGeometry x="190" y="400" width="30" height="20" as="geometry" />
        </mxCell>
        <mxCell id="55" value="" style="edgeStyle=elbowEdgeStyle;elbow=horizontal;strokeColor=#990000;strokeWidth=2;entryX=1;entryY=0.5;entryDx=0;entryDy=0;" parent="1" source="5" target="oaGqmiSgCqS2MbXFFsNn-123" edge="1">
          <mxGeometry width="100" height="100" relative="1" as="geometry">
            <mxPoint x="50" y="530" as="sourcePoint" />
            <mxPoint x="250" y="400" as="targetPoint" />
            <Array as="points">
              <mxPoint x="245" y="390" />
            </Array>
          </mxGeometry>
        </mxCell>
        <mxCell id="56" value="" style="edgeStyle=elbowEdgeStyle;elbow=horizontal;strokeColor=#990000;strokeWidth=2;exitX=1;exitY=0.25;exitDx=0;exitDy=0;" parent="1" source="oaGqmiSgCqS2MbXFFsNn-123" target="5" edge="1">
          <mxGeometry width="100" height="100" relative="1" as="geometry">
            <mxPoint x="280" y="326" as="sourcePoint" />
            <mxPoint x="450" y="310" as="targetPoint" />
            <Array as="points">
              <mxPoint x="268" y="420" />
              <mxPoint x="280" y="390" />
              <mxPoint x="280" y="375" />
            </Array>
          </mxGeometry>
        </mxCell>
        <mxCell id="57" value="가상 계좌&#xa;부여" style="text;spacingTop=-5;align=center" parent="1" vertex="1">
          <mxGeometry x="290" y="400" width="30" height="20" as="geometry" />
        </mxCell>
        <mxCell id="76" value="" style="edgeStyle=elbowEdgeStyle;elbow=horizontal;strokeColor=#990000;strokeWidth=2;exitX=0.75;exitY=0;exitDx=0;exitDy=0;" parent="1" source="oaGqmiSgCqS2MbXFFsNn-96" target="5" edge="1">
          <mxGeometry width="100" height="100" relative="1" as="geometry">
            <mxPoint x="680" y="520" as="sourcePoint" />
            <mxPoint x="520" y="480" as="targetPoint" />
            <Array as="points">
              <mxPoint x="670" y="530" />
            </Array>
          </mxGeometry>
        </mxCell>
        <mxCell id="77" value="" style="edgeStyle=elbowEdgeStyle;elbow=horizontal;strokeColor=#990000;strokeWidth=2;exitX=1;exitY=0.75;exitDx=0;exitDy=0;entryX=0.5;entryY=0;entryDx=0;entryDy=0;" parent="1" source="5" target="oaGqmiSgCqS2MbXFFsNn-96" edge="1">
          <mxGeometry width="100" height="100" relative="1" as="geometry">
            <mxPoint x="400" y="590" as="sourcePoint" />
            <mxPoint x="648" y="520" as="targetPoint" />
            <Array as="points">
              <mxPoint x="648" y="460" />
            </Array>
          </mxGeometry>
        </mxCell>
        <mxCell id="oaGqmiSgCqS2MbXFFsNn-96" value="&lt;p style=&quot;margin: 0px ; margin-top: 4px ; text-align: center ; text-decoration: underline&quot;&gt;&lt;strong&gt;&lt;strong&gt;Process&lt;/strong&gt;&amp;nbsp;1&lt;br&gt;&lt;/strong&gt;&lt;/p&gt;&lt;hr&gt;&lt;p style=&quot;margin: 0px ; margin-left: 8px&quot;&gt;간편 결제&lt;/p&gt;&lt;p style=&quot;margin: 0px ; margin-left: 8px&quot;&gt;(웹 사이트)&lt;/p&gt;" style="verticalAlign=middle;align=center;overflow=fill;fontSize=12;fontFamily=Helvetica;html=1;rounded=1;fontStyle=1;strokeWidth=3;fillColor=#E6FFCC" vertex="1" parent="1">
          <mxGeometry x="592.5" y="585" width="110" height="90" as="geometry" />
        </mxCell>
        <mxCell id="oaGqmiSgCqS2MbXFFsNn-97" value="&lt;p style=&quot;margin: 0px ; margin-top: 4px ; text-align: center ; text-decoration: underline&quot;&gt;&lt;strong&gt;&lt;br&gt;&lt;/strong&gt;&lt;/p&gt;&lt;hr&gt;&lt;p style=&quot;margin: 0px ; margin-left: 8px&quot;&gt;카드사&lt;/p&gt;&lt;p style=&quot;margin: 0px ; margin-left: 8px&quot;&gt;지불 제휴사&lt;/p&gt;&lt;p style=&quot;margin: 0px ; margin-left: 8px&quot;&gt;&lt;br&gt;&lt;/p&gt;" style="verticalAlign=middle;align=center;overflow=fill;fontSize=12;fontFamily=Helvetica;html=1;rounded=1;fontStyle=1;strokeWidth=3;fillColor=#E6FFCC" vertex="1" parent="1">
          <mxGeometry x="79.99999999999991" y="585" width="110" height="90" as="geometry" />
        </mxCell>
        <mxCell id="oaGqmiSgCqS2MbXFFsNn-99" value="" style="edgeStyle=none;noEdgeStyle=1;strokeColor=#990000;strokeWidth=2" edge="1" parent="1">
          <mxGeometry width="100" height="100" relative="1" as="geometry">
            <mxPoint x="443" y="620" as="sourcePoint" />
            <mxPoint x="590" y="620" as="targetPoint" />
          </mxGeometry>
        </mxCell>
        <mxCell id="oaGqmiSgCqS2MbXFFsNn-100" value="" style="edgeStyle=none;noEdgeStyle=1;strokeColor=#990000;strokeWidth=2" edge="1" parent="1">
          <mxGeometry width="100" height="100" relative="1" as="geometry">
            <mxPoint x="191.5" y="620" as="sourcePoint" />
            <mxPoint x="338.5" y="620" as="targetPoint" />
          </mxGeometry>
        </mxCell>
        <mxCell id="oaGqmiSgCqS2MbXFFsNn-101" value="" style="edgeStyle=none;noEdgeStyle=1;strokeColor=#990000;strokeWidth=2;entryX=1.007;entryY=0.6;entryDx=0;entryDy=0;entryPerimeter=0;" edge="1" parent="1" target="oaGqmiSgCqS2MbXFFsNn-97">
          <mxGeometry width="100" height="100" relative="1" as="geometry">
            <mxPoint x="336" y="640" as="sourcePoint" />
            <mxPoint x="224.5" y="730" as="targetPoint" />
          </mxGeometry>
        </mxCell>
        <mxCell id="oaGqmiSgCqS2MbXFFsNn-104" value="" style="edgeStyle=none;noEdgeStyle=1;strokeColor=#990000;strokeWidth=2;entryX=1.013;entryY=0.627;entryDx=0;entryDy=0;entryPerimeter=0;" edge="1" parent="1" target="10">
          <mxGeometry width="100" height="100" relative="1" as="geometry">
            <mxPoint x="592.5" y="641" as="sourcePoint" />
            <mxPoint x="447.27" y="640" as="targetPoint" />
          </mxGeometry>
        </mxCell>
        <mxCell id="oaGqmiSgCqS2MbXFFsNn-106" value="예약 확정" style="text;spacingTop=-5;align=center" vertex="1" parent="1">
          <mxGeometry x="620" y="450" width="30" height="20" as="geometry" />
        </mxCell>
        <mxCell id="oaGqmiSgCqS2MbXFFsNn-109" value="주문, 결제" style="text;spacingTop=-5;align=center" vertex="1" parent="1">
          <mxGeometry x="592.5" y="510" width="30" height="20" as="geometry" />
        </mxCell>
        <mxCell id="oaGqmiSgCqS2MbXFFsNn-111" value="승인 요청" style="text;spacingTop=-5;align=center" vertex="1" parent="1">
          <mxGeometry x="500" y="650" width="30" height="20" as="geometry" />
        </mxCell>
        <mxCell id="oaGqmiSgCqS2MbXFFsNn-112" value="승인 요청" style="text;spacingTop=-5;align=center" vertex="1" parent="1">
          <mxGeometry x="250" y="650" width="30" height="20" as="geometry" />
        </mxCell>
        <mxCell id="oaGqmiSgCqS2MbXFFsNn-113" value="대금 요청" style="text;spacingTop=-5;align=center" vertex="1" parent="1">
          <mxGeometry x="250" y="670" width="30" height="20" as="geometry" />
        </mxCell>
        <mxCell id="oaGqmiSgCqS2MbXFFsNn-116" value="승인 결과" style="text;spacingTop=-5;align=center" vertex="1" parent="1">
          <mxGeometry x="250" y="565" width="30" height="20" as="geometry" />
        </mxCell>
        <mxCell id="oaGqmiSgCqS2MbXFFsNn-117" value="대금 지급" style="text;spacingTop=-5;align=center" vertex="1" parent="1">
          <mxGeometry x="250" y="585" width="30" height="20" as="geometry" />
        </mxCell>
        <mxCell id="oaGqmiSgCqS2MbXFFsNn-119" value="승인 결과" style="text;spacingTop=-5;align=center" vertex="1" parent="1">
          <mxGeometry x="504" y="549" width="30" height="20" as="geometry" />
        </mxCell>
        <mxCell id="oaGqmiSgCqS2MbXFFsNn-120" value="대금 청산" style="text;spacingTop=-5;align=center" vertex="1" parent="1">
          <mxGeometry x="504" y="569" width="30" height="20" as="geometry" />
        </mxCell>
        <mxCell id="oaGqmiSgCqS2MbXFFsNn-122" value="전자세금 계산서 발행" style="text;spacingTop=-5;align=center" vertex="1" parent="1">
          <mxGeometry x="504" y="589" width="30" height="20" as="geometry" />
        </mxCell>
        <mxCell id="oaGqmiSgCqS2MbXFFsNn-123" value="&lt;p style=&quot;margin: 0px ; margin-top: 4px ; text-align: center ; text-decoration: underline&quot;&gt;&lt;strong&gt;&lt;strong&gt;Process&lt;/strong&gt;&amp;nbsp;2&lt;br&gt;&lt;/strong&gt;&lt;/p&gt;&lt;hr&gt;&lt;p style=&quot;margin: 0px ; margin-left: 8px&quot;&gt;무통장 입금&lt;/p&gt;" style="verticalAlign=middle;align=center;overflow=fill;fontSize=12;fontFamily=Helvetica;html=1;rounded=1;fontStyle=1;strokeWidth=3;fillColor=#E6FFCC;direction=south;" vertex="1" parent="1">
          <mxGeometry x="200" y="270" width="90" height="94" as="geometry" />
        </mxCell>
        <mxCell id="oaGqmiSgCqS2MbXFFsNn-131" value="&lt;b&gt;결제 시스템 설계&amp;nbsp;&lt;/b&gt;" style="shape=cube;whiteSpace=wrap;html=1;boundedLbl=1;backgroundOutline=1;darkOpacity=0.05;darkOpacity2=0.1;fontSize=16;align=center;rotation=0;size=10;shadow=1;" vertex="1" parent="1">
          <mxGeometry x="70" y="170" width="220" height="60" as="geometry" />
        </mxCell>
      </root>
    </mxGraphModel>
  </diagram>
</mxfile>
